<svg width="80" height="61" viewBox="0 0 80 61" fill="none" xmlns="http://www.w3.org/2000/svg">
<path fill-rule="evenodd" clip-rule="evenodd" d="M79.1248 30.5C79.1248 47.3446 61.4121 61 39.5624 61C17.7127 61 0 47.3446 0 30.5C0 13.6553 17.7127 0 39.5624 0C61.4121 0 79.1248 13.6553 79.1248 30.5ZM39.7468 34.8349C47.0386 26.8852 47.3604 22.0673 39.7468 13.5556C31.9878 22.2489 32.988 26.8568 39.7468 34.8349ZM36.2842 45.1903C37.4432 35.4949 34.5973 31.1984 22.4833 26.7619C21.402 37.2813 25.2566 40.8864 36.2842 45.1903ZM43.2565 45.1903C42.0975 35.4949 44.9436 31.1984 57.0576 26.7619C58.1387 37.2813 54.2843 40.8864 43.2565 45.1903Z" fill="black"/>
</svg>
